<?xml version="1.0" encoding="UTF-8"?><svg id="Layer_1" xmlns="http://www.w3.org/2000/svg" viewBox="0 0 25.19 32"><defs><style>.cls-1{fill:#feba0f;}.cls-2{fill:#4f4537;}.cls-3{fill:#98b62d;}</style></defs><path class="cls-2" d="m16.66,26.74h-8.13c-1.17,0-2.13-.96-2.13-2.13,0-.35.28-.63.63-.63s.63.28.63.63c0,.48.39.87.87.87h8.13c.48,0,.87-.39.87-.87v-.45c0-1.2.65-1.64,1.33-2.11.06-.04.12-.08.18-.12,3.06-2.12,4.89-5.61,4.89-9.33,0-3.06-1.2-5.93-3.38-8.08-2.18-2.15-5.06-3.31-8.12-3.26C6.31,1.34,1.3,6.39,1.26,12.52c-.03,3.75,1.8,7.27,4.89,9.41.29.2.36.59.16.87-.2.29-.59.36-.87.16C2,20.59-.03,16.68,0,12.51.05,5.71,5.62.1,12.42,0c3.4-.05,6.61,1.24,9.02,3.63,2.42,2.39,3.75,5.57,3.75,8.97,0,4.13-2.03,8.01-5.44,10.36-.06.04-.12.09-.18.13-.66.45-.79.55-.79,1.07v.45c0,1.17-.96,2.13-2.13,2.13Z"/><rect class="cls-3" x="7.95" y="27.43" width="9.3" height="1.97" rx=".98" ry=".98"/><rect class="cls-3" x="9.77" y="30.03" width="5.66" height="1.97" rx=".98" ry=".98"/><path class="cls-1" d="m16.37,20.62c-.94-.25-1.9-.4-2.88-.45-1.82-.08-3.58.19-5.32.72-.38.12-.76.25-1.13.4,1.6,1.03,3.51,1.62,5.55,1.62s3.96-.6,5.57-1.64c-.58-.27-1.18-.49-1.8-.66Z"/><path class="cls-1" d="m15.82,16.88c.63-.04,1.18-.27,1.65-.68.5-.44.88-.96,1.02-1.63.19-.89.03-1.71-.51-2.44-.56-.75-1.32-1.16-2.27-1.18-.19,0-.38.02-.41-.25-.83-1.73-3.03-2.26-4.55-1.08-.42.33-.75.74-.93,1.25-.03.07-.08.07-.13.07-.22,0-.43,0-.64.05-1.93.37-3.01,2.48-2.1,4.3.33.66.85,1.14,1.55,1.39.3.11.6.19.92.2.19.01.19.02.19.21v.96s0,0-.01,0c0,.22,0,.44,0,.66,0,.08,0,.11.11.1.51-.06,1-.19,1.5-.26.53-.07,1.05-.16,1.58-.15.53.02,1.06.12,1.59.2.37.06.73.12,1.09.18.1.02.14,0,.14-.11,0-.17-.01-.34-.01-.52,0-.35.01-.69,0-1.04,0-.22,0-.23.21-.25Zm-5.62-4.86s-.03-.06,0-.08c.03-.02.05.01.07.02.82.58,1.45,1.34,1.51,2.24-.02.86-.54,1.54-1.11,2.04-.02.02-.05.04-.07.05-.04.02-.08.05-.11,0-.03-.04-.01-.08.01-.11.16-.18.23-.41.33-.62.21-.46.28-.95.21-1.45-.09-.64-.34-1.22-.66-1.77-.06-.1-.12-.2-.16-.32Zm3.66,5.98c-.61-.04-1.22-.13-1.84-.06-.51.06-1.03.11-1.55.09-.04,0-.19-.02-.11-.06.05-.03.07-.04.11-.05.12-.04.19-.06.28-.1.65-.25,1.23-.6,1.92-.56.59.03,1.26.41,1.82.58.13.04.23.07.38.17-.34.01-.68,0-1.02-.02Zm1.73-6.17c.1.04.13.08.18.12.23.16.41.36.58.59.25.34.49.78.52,1.21.04.51-.16.96-.44,1.41-.12.19-.29.34-.46.48-.03.02-.06.06-.1.02-.03-.03,0-.07.02-.1.18-.28.31-.58.4-.89.14-.49.11-.99-.06-1.46-.12-.34-.25-.68-.45-.98-.07-.11-.12-.24-.19-.38Z"/><path class="cls-1" d="m12.6,2.28C6.9,2.28,2.28,6.9,2.28,12.6c0,3.42,1.66,6.44,4.22,8.32.72-.32,1.46-.59,2.23-.77.06-.01.07-.04.07-.08,0-.76,0-1.52,0-2.27,0-.07-.03-.07-.09-.07-.8-.04-1.53-.28-2.17-.77-.85-.66-1.36-1.52-1.49-2.59-.24-1.91,1.07-3.73,2.97-4.15.31-.07.62-.09.93-.08.08,0,.12-.02.15-.1.38-.94,1.04-1.62,1.96-2.04,1.98-.91,4.25.11,5.04,2.02.04.09.09.11.18.11.92-.02,1.74.26,2.46.83.9.7,1.43,1.81,1.44,2.97,0,1.56-1.01,3.01-2.48,3.55-.36.13-.73.22-1.12.23-.11,0-.12.05-.12.14,0,.65,0,1.3,0,1.95,0,.26,0,.26.24.33.69.21,1.37.47,2.02.79,2.56-1.88,4.22-4.9,4.22-8.32,0-5.7-4.62-10.32-10.32-10.32Z"/></svg>